<svg width="50" height="50" viewBox="0 0 50 50" fill="none" xmlns="http://www.w3.org/2000/svg">
<path d="M30.8304 45.0428L44.9971 40.5141C44.7987 40.1469 44.5114 39.8311 44.1352 39.5667C43.759 39.3023 43.332 39.1693 42.8542 39.1677H30.8304C29.759 39.1677 28.9058 39.1269 28.2709 39.0453C27.636 38.9637 26.9812 38.8005 26.3066 38.5557L22.9137 37.3929C22.2788 37.1889 21.8225 36.7809 21.5447 36.1689C21.2669 35.5569 21.2272 34.9245 21.4256 34.2717C21.6241 33.6189 22.0114 33.1391 22.5875 32.8323C23.1637 32.5255 23.7685 32.4749 24.4018 32.6805L26.9018 33.5373C27.5764 33.7413 28.3407 33.9045 29.1947 34.0269C30.0487 34.1493 31.209 34.2309 32.6756 34.2717H33.3304C33.3304 33.8229 33.2018 33.3945 32.9447 32.9865C32.6875 32.5785 32.3796 32.3133 32.0209 32.1909L18.0923 26.9278H14.2828V40.3917L30.8304 45.0428ZM29.5804 49.8164L14.2828 45.41C13.9653 46.4708 13.3399 47.3276 12.4066 47.9804C11.4733 48.6332 10.5114 48.9596 9.52088 48.9596H4.75897C3.44945 48.9596 2.32882 48.4806 1.39707 47.5226C0.465324 46.5647 -0.00134239 45.4117 -0.00292969 44.0637V26.9278C-0.00292969 25.5814 0.463737 24.4292 1.39707 23.4712C2.3304 22.5133 3.45104 22.0335 4.75897 22.0318H18.0923C18.3701 22.0318 18.6479 22.0628 18.9256 22.1249C19.2034 22.1869 19.4614 22.2579 19.6994 22.3378L33.6875 27.6622C34.9971 28.1518 36.059 29.0086 36.8733 30.2326C37.6875 31.4566 38.0939 32.8029 38.0923 34.2717H42.8542C44.8383 34.2717 46.5248 34.9449 47.9137 36.2913C49.3026 37.6377 49.9971 39.4125 49.9971 41.6157C49.9971 42.5133 49.7685 43.2175 49.3114 43.7283C48.8542 44.2391 48.1502 44.6569 47.1994 44.9816L32.3185 49.7552C31.882 49.9184 31.4256 50 30.9494 50C30.4733 50 30.0169 49.9388 29.5804 49.8164ZM4.75897 44.0637H9.52088V26.9278H4.75897V44.0637ZM35.7114 24.9694C35.1161 24.9694 34.5312 24.8576 33.9566 24.634C33.382 24.4104 32.8558 24.0734 32.378 23.623L25.8304 17.0135C24.6002 15.7895 23.559 14.4333 22.7066 12.9449C21.8542 11.4566 21.4272 9.83436 21.4256 8.07834C21.4256 5.83436 22.1899 3.92738 23.7185 2.35741C25.2471 0.787441 27.1018 0.00163921 29.2828 7.22119e-06C30.5526 7.22119e-06 31.7431 0.275813 32.8542 0.827425C33.9653 1.37904 34.9177 2.12322 35.7114 3.05998C36.505 2.12159 37.4574 1.37659 38.5685 0.824976C39.6796 0.273365 40.8701 -0.00162477 42.1399 7.22119e-06C44.3225 7.22119e-06 46.178 0.785809 47.7066 2.35741C49.2352 3.92902 49.9987 5.83599 49.9971 8.07834C49.9971 9.83273 49.5804 11.4549 48.7471 12.9449C47.9137 14.4349 46.882 15.7911 45.6518 17.0135L39.0447 23.623C38.5685 24.0718 38.0431 24.4088 37.4685 24.634C36.8939 24.8592 36.3082 24.971 35.7114 24.9694ZM35.7114 20.0734L42.1994 13.5251C42.9534 12.7499 43.6479 11.9241 44.2828 11.0477C44.9177 10.1714 45.2352 9.18157 45.2352 8.07834C45.2352 7.18075 44.9375 6.42595 44.3423 5.81396C43.7471 5.20196 43.0129 4.89597 42.1399 4.89597C41.5844 4.89597 41.0582 5.00857 40.5614 5.23379C40.0645 5.459 39.6383 5.79519 39.2828 6.24236L37.5566 8.38434C37.0804 8.95553 36.4653 9.24113 35.7114 9.24113C34.9574 9.24113 34.3423 8.95553 33.8661 8.38434L32.1399 6.24236C31.7828 5.79356 31.3558 5.45655 30.859 5.23134C30.3621 5.00613 29.8368 4.89434 29.2828 4.89597C28.4098 4.89597 27.6756 5.20196 27.0804 5.81396C26.4852 6.42595 26.1875 7.18075 26.1875 8.07834C26.1875 9.17993 26.505 10.1697 27.1399 11.0477C27.7748 11.9258 28.4693 12.7515 29.2233 13.5251L35.7114 20.0734Z" fill="#00A676"/>
</svg>
